<?xml version="1.0" encoding="UTF-8"?>
<svg xmlns="http://www.w3.org/2000/svg" xmlns:xlink="http://www.w3.org/1999/xlink" width="585.94pt" height="262.78pt" viewBox="0 0 585.94 262.78" version="1.1">
<defs>
<clipPath id="clip1">
  <path d="M 402 161 L 447 161 L 447 262.78125 L 402 262.78125 Z M 402 161 "/>
</clipPath>
<clipPath id="clip2">
  <path d="M 103 182 L 177 182 L 177 262.78125 L 103 262.78125 Z M 103 182 "/>
</clipPath>
<clipPath id="clip3">
  <path d="M 262 182 L 331 182 L 331 262.78125 L 262 262.78125 Z M 262 182 "/>
</clipPath>
<clipPath id="clip4">
  <path d="M 335 182 L 399 182 L 399 262.78125 L 335 262.78125 Z M 335 182 "/>
</clipPath>
<clipPath id="clip5">
  <path d="M 521 182 L 585.941406 182 L 585.941406 262.78125 L 521 262.78125 Z M 521 182 "/>
</clipPath>
<clipPath id="clip6">
  <path d="M 443 183 L 515 183 L 515 262.78125 L 443 262.78125 Z M 443 183 "/>
</clipPath>
</defs>
<g id="surface1">
<path style=" stroke:none;fill-rule:nonzero;fill:rgb(98.399353%,68.598938%,19.599915%);fill-opacity:1;" d="M 173.207031 100.609375 L 200.578125 129.003906 L 139.867188 129.003906 Z M 173.207031 100.609375 "/>
<path style=" stroke:none;fill-rule:nonzero;fill:rgb(83.499146%,49.398804%,15.699768%);fill-opacity:1;" d="M 141.066406 129.003906 L 155.527344 129.003906 L 173.207031 100.609375 Z M 141.066406 129.003906 "/>
<path style=" stroke:none;fill-rule:nonzero;fill:rgb(98.399353%,68.598938%,19.599915%);fill-opacity:1;" d="M 70.914063 204.320313 L 0 130.730469 L 82.785156 130.730469 Z M 70.914063 204.320313 "/>
<path style=" stroke:none;fill-rule:nonzero;fill:rgb(83.499146%,49.398804%,15.699768%);fill-opacity:1;" d="M 85.734375 130.730469 L 61.1875 130.730469 L 70.914063 204.320313 Z M 85.734375 130.730469 "/>
<g clip-path="url(#clip1)" clip-rule="nonzero">
<path style=" stroke:none;fill-rule:evenodd;fill:rgb(255,255,255);fill-opacity:1;" d="M 402.003906 161.527344 C 408.652344 161.527344 414.996094 161.527344 421.648438 161.527344 C 421.648438 168.59375 421.648438 176.910156 421.648438 183.976563 C 425.492188 183.976563 442.125 183.976563 446.289063 183.976563 C 446.289063 188.132813 446.441406 192.292969 446.441406 196.449219 C 441.871094 196.449219 426.21875 196.449219 421.648438 196.449219 C 421.648438 211.109375 422.121094 228.414063 422.121094 241.726563 C 422.121094 242.804688 422.976563 243.703125 423.519531 244.628906 C 425.457031 247.933594 430.519531 247.96875 436.300781 247.59375 C 436.921875 253.046875 436.921875 255.851563 437.390625 260.84375 C 414.695313 267.378906 402.003906 254.140625 402.003906 243.066406 C 402.003906 230.285156 402.003906 169.011719 402.003906 161.527344 "/>
</g>
<g clip-path="url(#clip2)" clip-rule="nonzero">
<path style=" stroke:none;fill-rule:evenodd;fill:rgb(255,255,255);fill-opacity:1;" d="M 121.972656 215.085938 C 133.613281 215.085938 146.496094 215.15625 158.136719 215.15625 C 158.300781 191.230469 121.660156 192.320313 121.972656 215.085938 Z M 176.230469 228.871094 C 157.941406 228.871094 140.261719 228.871094 121.96875 228.871094 C 125.71875 251.332031 149.210938 248.539063 169.558594 244.410156 C 170.730469 249.746094 171.640625 253.082031 172.964844 258.5625 C 134.28125 270.390625 101.03125 255.484375 103.265625 218.894531 C 104.628906 196.488281 120.648438 183.125 140.605469 182.5 C 157.667969 181.96875 175.0625 194.738281 176.074219 213.914063 C 176.308594 218.273438 176.152344 223.65625 176.230469 228.871094 "/>
</g>
<path style=" stroke:none;fill-rule:evenodd;fill:rgb(255,255,255);fill-opacity:1;" d="M 253.878906 261.296875 C 247.222656 261.296875 241.976563 261.296875 235.324219 261.296875 C 235.324219 246.8125 235.480469 228.601563 235.480469 214.695313 C 235.480469 208.59375 229.265625 196.964844 220.355469 198.636719 C 212.871094 200.039063 202.742188 205.183594 201.804688 216.5625 C 201.179688 229.972656 201.335938 248.214844 201.335938 261.296875 C 194.6875 261.296875 190.046875 261.296875 183.394531 261.296875 C 183.394531 235.523438 183.394531 209.75 183.394531 183.976563 C 189.628906 183.976563 195.257813 184.136719 201.492188 184.136719 C 201.492188 187.460938 201.492188 191.570313 201.492188 194.894531 C 207.988281 190.570313 218.625 179.605469 237.039063 183.046875 C 248.398438 186.832031 253.523438 198.039063 253.523438 212.074219 C 253.523438 227.464844 253.878906 245.90625 253.878906 261.296875 "/>
<g clip-path="url(#clip3)" clip-rule="nonzero">
<path style=" stroke:none;fill-rule:evenodd;fill:rgb(255,255,255);fill-opacity:1;" d="M 283.371094 245.085938 C 293.777344 253.148438 314.015625 247.167969 310.808594 230.121094 C 296.257813 229.175781 276.03125 228.183594 283.371094 245.085938 Z M 330.015625 261.296875 C 323.78125 261.296875 317.539063 261.296875 311.304688 261.296875 C 311.304688 259.21875 311.304688 255.28125 311.304688 253.203125 C 302.453125 264.167969 285.050781 264.9375 273.421875 258.351563 C 260.941406 251.277344 258.613281 233.089844 268.40625 222.640625 C 276.449219 214.054688 292.71875 217.019531 310.808594 216.398438 C 314.265625 190.0625 284.910156 198.324219 267.804688 198.792969 C 267.339844 192.710938 267.496094 190.84375 267.160156 185.222656 C 288.609375 182.003906 312.894531 178.210938 323.9375 192.558594 C 327.363281 197.011719 330.382813 202.375 330.382813 208.601563 C 330.382813 223.734375 330.125 242.910156 330.015625 261.296875 "/>
</g>
<g clip-path="url(#clip4)" clip-rule="nonzero">
<path style=" stroke:none;fill-rule:evenodd;fill:rgb(255,255,255);fill-opacity:1;" d="M 398.359375 185.070313 C 397.890625 190.0625 396.796875 194.582031 395.820313 198.941406 C 367.019531 191.617188 353.242188 208.386719 354.859375 225.144531 C 356.355469 240.660156 371.074219 253.046875 394.925781 245.097656 C 396.015625 248.683594 397.734375 253.671875 398.359375 257.878906 C 367.964844 271.867188 338.199219 254.207031 335.960938 226.378906 C 333.390625 194.375 360.804688 174.535156 398.359375 185.070313 "/>
</g>
<g clip-path="url(#clip5)" clip-rule="nonzero">
<path style=" stroke:none;fill-rule:evenodd;fill:rgb(255,255,255);fill-opacity:1;" d="M 582.792969 186.46875 C 581.929688 192.558594 581.617188 194.269531 580.300781 200.1875 C 570.382813 198.957031 542.277344 191.625 542.886719 202.683594 C 543.730469 217.96875 595.824219 216.039063 584.265625 247.125 C 577.375 265.65625 541.125 265.660156 521.6875 255.0625 C 522.527344 250.710938 523.304688 247.75 525.429688 242.59375 C 536.25 245.097656 566.277344 253.992188 566.582031 240.097656 C 566.808594 229.972656 534.203125 226.25 527.921875 216.398438 C 511.613281 190.84375 545.136719 173.691406 582.792969 186.46875 "/>
</g>
<g clip-path="url(#clip6)" clip-rule="nonzero">
<path style=" stroke:none;fill-rule:evenodd;fill:rgb(255,255,255);fill-opacity:1;" d="M 444.050781 183.976563 C 450.703125 183.976563 456.785156 183.976563 463.433594 183.976563 C 463.433594 198.324219 463.125 218.472656 463.125 232.625 C 463.125 239.261719 467.078125 244.382813 472.734375 245.085938 C 485.417969 246.65625 494.824219 239.167969 495.398438 226.074219 C 495.949219 213.402344 495.761719 197.425781 495.710938 183.976563 C 502.359375 183.976563 507.765625 183.976563 514.417969 183.976563 C 514.417969 209.75 514.574219 235.523438 514.574219 261.296875 C 508.335938 261.296875 502.257813 261.296875 496.023438 261.296875 C 496.023438 257.972656 496.023438 252.164063 496.023438 248.835938 C 489.625 258.972656 469.980469 268.636719 454.859375 258.351563 C 447.21875 253.148438 444.707031 243.9375 444.097656 232.9375 C 443.269531 218.023438 444.050781 200.191406 444.050781 183.976563 "/>
</g>
<path style=" stroke:none;fill-rule:nonzero;fill:rgb(99.598694%,76.098633%,14.099121%);fill-opacity:1;" d="M 72.039063 0.00390625 L 70.761719 204.382813 L 173.207031 100.609375 Z M 72.039063 0.00390625 "/>
</g>
</svg>
